# AST/ASF file generated using VICON BodyLanguage
# -----------------------------------------------
:version 1.10
:name VICON
:units
  mass 1.0
  length 0.45
  angle deg
:documentation
   .ast/.asf automatically generated from VICON data using
   VICON BodyBuilder and BodyLanguage model FoxedUp or BRILLIANT.MOD
:root
   order TX TY TZ RX RY RZ
   axis XYZ
   position 0 0 0  
   orientation 0 0 0 
:bonedata
  begin
     id 1 
     name lhipjoint
     direction 0.710188 -0.616876 0.339259 
     length 2.5669 
     axis 0 0 0  XYZ
  end
  begin
     id 2 
     name lfemur
     direction 0.34202 -0.939693 0  
     length 7.12796  
     axis 0 0 20  XYZ
    dof rx ry rz
    limits (-160.0 20.0)
           (-70.0 70.0)
           (-60.0 70.0)
  end
  begin
     id 3 
     name ltibia
     direction 0.34202 -0.939693 0   
     length 7.58108   
     axis 0 0 20   XYZ
    dof rx
    limits (-10.0 170.0)
  end
  begin
     id 4 
     name lfoot
     direction 0.0669471 -0.183936 0.980656   
     length 2.17365   
     axis -90 7.62852e-016 20   XYZ
    dof rx rz
    limits (-45.0 90.0)
           (-70.0 20.0)
  end
  begin
     id 5 
     name ltoes
     direction 1.53508e-011 -4.21705e-011 1   
     length 1.09427   
     axis -90 7.62852e-016 20   XYZ
    dof rx
    limits (-90.0 20.0)
  end
  begin
     id 6 
     name rhipjoint
     direction -0.700191 -0.625589 0.34405   
     length 2.53115  
     axis 0 0 0  XYZ 
  end
  begin
     id 7 
     name rfemur
     direction -0.34202 -0.939693 0   
     length 7.33006   
     axis 0 0 -20   XYZ
    dof rx ry rz
    limits (-160.0 20.0)
           (-70.0 70.0)
           (-70.0 60.0)
  end
  begin
     id 8 
     name rtibia
     direction -0.34202 -0.939693 0   
     length 7.64926   
     axis 0 0 -20   XYZ
    dof rx
    limits (-10.0 170.0)
 end
 begin
     id 9 
     name rfoot
     direction -0.0688927 -0.189281 0.979503   
     length 2.20493  
     axis -90 -7.62852e-016 -20   XYZ
    dof rx rz
    limits (-45.0 90.0)
           (-20.0 70.0)
  end
  begin
     id 10 
     name rtoes
     direction -1.53567e-011 -4.21933e-011 1   
     length 1.10919   
     axis -90 -7.62852e-016 -20   XYZ
    dof rx
    limits (-90.0 20.0)
  end
  begin
     id 11 
     name lowerback
     direction -0.0167868 0.989873 -0.140959   
     length 2.14596   
     axis 0 0 0   XYZ
    dof rx ry rz
    limits (-20.0 45.0)
           (-30.0 30.0)
           (-30.0 30.0)
  end
  begin
     id 12 
     name upperback
     direction 0.0129109 0.998033 0.0613525   
     length 2.10457   
     axis 0 0 0   XYZ
    dof rx ry rz
    limits (-20.0 45.0)
           (-30.0 30.0)
           (-30.0 30.0)
  end
  begin
     id 13 
     name thorax
     direction 0.0177047 0.991119 0.131797   
     length 2.17652   
     axis 0 0 0   XYZ
    dof rx ry rz
    limits (-20.0 45.0)
           (-30.0 30.0)
           (-30.0 30.0)
  end
  begin
     id 14 
     name lowerneck
     direction -0.0336893 0.997548 0.0613464   
     length 1.8912   
     axis 0 0 0   XYZ
    dof rx ry rz
    limits (-20.0 45.0)
           (-30.0 30.0)
           (-30.0 30.0)
  end
  begin
     id 15 
     name upperneck
     direction 0.0435909 0.997179 -0.0611028   
     length 1.8829   
     axis 0 0 0   XYZ
    dof rx ry rz
    limits (-20.0 45.0)
           (-30.0 30.0)
           (-30.0 30.0)
  end
  begin
     id 16
     name head
     direction 0.0175076 0.999444 -0.0283782  
     length 1.93197  
     axis 0 0 0   XYZ
    dof rx ry rz
    limits (-20.0 45.0)
           (-30.0 30.0)
           (-30.0 30.0)
  end
  begin
     id 17 
     name lclavicle
     direction 0.919164 0.389875 0.0559876  
     length 3.60004  
     axis 0 0 0   XYZ
    dof ry rz
    limits (-20.0 10.0)
           (0.0 20.0)
  end
  begin
     id 18 
     name lhumerus
     direction 1 -4.48958e-011 6.89191e-027   
     length 5.43301   
     axis 180 -30 -90   XYZ
    dof rx ry rz
    limits (-60.0 90.0)
           (-90.0 90.0)
           (-90.0 90.0)
  end
  begin
     id 19
     name lradius
     direction 1 -4.4897e-011 3.24727e-027   
     length 3.15936   
     axis 180 -30 -90   XYZ
    dof rx
    limits (-10.0 170.0)
  end
  begin
     id 20
     name lwrist
     direction 1 -4.4897e-011 9.00228e-027   
     length 1.57968   
     axis -6.29373e-015 90 90   XYZ
    dof ry
    limits (-180.0 0.0)
 end
  begin
     id 21 
     name lhand
     direction 1 -4.48968e-011 1.80042e-026   
     length 0.712827   
     axis -1.14882e-014 90 90   XYZ
    dof rx rz
    limits (-90.0 90.0)
           (-45.0 45.0)
  end
  begin
     id 22 
     name lfingers
     direction 1 -4.49019e-011 3.60267e-026   
     length 0.574699   
     axis -2.29769e-014 90 90   XYZ
    dof rx
    limits (0.0 90.0)
  end
  begin
     id 23
     name lthumb
     direction 0.707107 -6.3498e-011 0.707107   
     length 0.825157   
     axis -90 45 5.37419e-014   XYZ
    dof rx rz
    limits (-45.0 45.0)
           (-45.0 45.0)
  end
  begin
     id 24 
     name rclavicle
     direction -0.890334 0.455305 -0.00132111   
     length 3.51494  
     axis 0 0 0   XYZ 
    dof ry rz
    limits (-10.0 20.0)
           (-20.0 0.0)
  end
  begin
     id 25 
     name rhumerus
     direction -1 -4.48967e-011 5.07175e-028  
     length 5.34194   
     axis 180 30 90   XYZ
    dof rx ry rz
    limits (-90.0 60.0)
           (-90.0 90.0)
           (-90.0 90.0)
  end
  begin
     id 26 
     name rradius
     direction -1 -4.48955e-011 3.30467e-027   
     length 3.19351   
     axis 180 30 90   XYZ
    dof rx
    limits (-10.0 170.0)
  end
  begin
     id 27 
     name rwrist
     direction -1 -4.48968e-011 9.00208e-027   
     length 1.59676   
     axis -6.29373e-015 -90 -90   XYZ
    dof ry
    limits (-180.0 0.0)
  end
  begin
     id 28
     name rhand
     direction -1 -4.49e-011 1.80099e-026   
     length 0.743862   
     axis -1.14882e-014 -90 -90   XYZ
    dof rx rz
    limits (-90.0 90.0)
           (-45.0 45.0)
  end
  begin
     id 29
     name rfingers
     direction -1 -4.49009e-011 3.6023e-026   
     length 0.599721   
     axis -2.29769e-014 -90 -90   XYZ
    dof rx
    limits (0.0 90.0)
  end
  begin
     id 30
     name rthumb
     direction -0.707107 -6.35025e-011 0.707107   
     length 0.861083   
     axis -90 -45 -5.37419e-014   XYZ
    dof rx rz
    limits (-45.0 45.0)
           (-45.0 45.0)
  end
:hierarchy
  begin
    root lhipjoint rhipjoint lowerback
    lhipjoint lfemur
    lfemur ltibia
    ltibia lfoot
    lfoot ltoes
    rhipjoint rfemur
    rfemur rtibia
    rtibia rfoot
    rfoot rtoes
    lowerback upperback
    upperback thorax
    thorax lowerneck lclavicle rclavicle
    lowerneck upperneck
    upperneck head
    lclavicle lhumerus
    lhumerus lradius
    lradius lwrist
    lwrist lhand lthumb
    lhand lfingers
    rclavicle rhumerus
    rhumerus rradius
    rradius rwrist
    rwrist rhand rthumb
    rhand rfingers
  end

#!OML:ASF H:\Martial Arts Walks\Project 1\Capture day 1\Session 1\male.ASF
:FULLY-SPECIFIED
:DEGREES
92
root -0.798833 11.5105 11.3146 8.97208 1.66257 -1.80579
lowerback 18.7837 1.59415 -2.51987
upperback -3.51622 1.67943 1.07794
thorax -14.7406 1.04962 2.13668
lowerneck -7.19645 -3.13402 -5.76837
upperneck 3.79174 -3.94579 5.46347
head 2.76232 -1.87956 2.63674
rclavicle -9.98272e-015 -1.73315e-014
rhumerus 39.4852 -2.63437 -63.5139
rradius 94.3905
rwrist 20.9173
rhand 1.22602 -13.9894
rfingers 7.12502
rthumb 26.7642 -42.1161
lclavicle -9.98272e-015 -1.73315e-014
lhumerus 41.9028 -4.70511 87.165
lradius 87.8514
lwrist -35.7638
lhand -10.9583 2.05108
lfingers 7.12502
lthumb 15.0607 31.4832
rfemur -72.7996 -5.64026 21.2122
rtibia 107.983
rfoot -33.52 -17.5618
rtoes -13.4658
lfemur -73.484 11.3629 -18.1801
ltibia 107.134
lfoot -31.5539 16.7457
ltoes -13.881
93
root -0.799448 11.5099 11.313 8.97331 1.67082 -1.79787
lowerback 18.7853 1.59024 -2.51469
upperback -3.5104 1.67577 1.08057
thorax -14.7342 1.04752 2.13787
lowerneck -7.21881 -3.1299 -5.75195
upperneck 3.80376 -3.94064 5.45546
head 2.76949 -1.87668 2.63112
rclavicle 1.37689e-014 -2.99419e-015
rhumerus 39.4976 -2.63484 -63.508
rradius 94.3758
rwrist 20.9291
rhand 1.24713 -13.9913
rfingers 7.12502
rthumb 26.7844 -42.1149
lclavicle 1.37689e-014 -2.99419e-015
lhumerus 41.8991 -4.70801 87.1773
lradius 87.844
lwrist -35.7618
lhand -10.9466 2.0481
lfingers 7.12502
lthumb 15.0719 31.4794
rfemur -72.8125 -5.62963 21.2022
rtibia 107.99
rfoot -33.5148 -17.5692
rtoes -13.4159
lfemur -73.4971 11.3331 -18.1831
ltibia 107.137
lfoot -31.5439 16.7513
ltoes -13.818
94
root -0.799953 11.5096 11.3114 8.97406 1.6752 -1.78946
lowerback 18.7927 1.58821 -2.50711
upperback -3.50949 1.67473 1.08081
thorax -14.7373 1.04641 2.13404
lowerneck -7.23755 -3.13053 -5.75227
upperneck 3.82155 -3.94161 5.46404
head 2.77943 -1.87664 2.63406
rclavicle -1.61823e-015 2.95692e-015
rhumerus 39.4944 -2.63333 -63.5003
rradius 94.3638
rwrist 20.9441
rhand 1.26123 -13.9991
rfingers 7.12502
rthumb 26.7979 -42.1207
lclavicle -1.61823e-015 2.95692e-015
lhumerus 41.8906 -4.71664 87.1859
lradius 87.8375
lwrist -35.7531
lhand -10.9133 2.05192
lfingers 7.12502
lthumb 15.1041 31.4808
rfemur -72.8245 -5.61563 21.1906
rtibia 107.996
rfoot -33.5063 -17.5798
rtoes -13.3818
lfemur -73.5089 11.3053 -18.187
ltibia 107.138
lfoot -31.534 16.7536
ltoes -13.7314
95
root -0.800378 11.5094 11.3099 8.9731 1.67691 -1.78259
lowerback 18.7996 1.58773 -2.49669
upperback -3.50857 1.6764 1.08039
thorax -14.7401 1.04624 2.12702
lowerneck -7.25961 -3.13614 -5.75702
upperneck 3.8486 -3.94905 5.47418
head 2.79376 -1.87981 2.63805
rclavicle 1.65737e-014 1.40392e-015
rhumerus 39.4864 -2.63379 -63.49
rradius 94.3526
rwrist 20.9546
rhand 1.26707 -14.0024
rfingers 7.12502
rthumb 26.8034 -42.1231
lclavicle 1.65737e-014 1.40392e-015
lhumerus 41.8842 -4.72996 87.191
lradius 87.8304
lwrist -35.7422
lhand -10.8678 2.05998
lfingers 7.12502
lthumb 15.1478 31.4856
rfemur -72.8325 -5.59727 21.1792
rtibia 108
rfoot -33.4977 -17.59
rtoes -13.3477
lfemur -73.5166 11.2807 -18.1894
ltibia 107.139
lfoot -31.5234 16.759
ltoes -13.6679
96
root -0.800742 11.509 11.3084 8.97129 1.67485 -1.77759
lowerback 18.8079 1.58881 -2.48453
upperback -3.50847 1.68054 1.07997
thorax -14.7448 1.04707 2.11819
lowerneck -7.27935 -3.14406 -5.76439
upperneck 3.87911 -3.95956 5.48396
head 2.8091 -1.88458 2.64228
rclavicle -1.09238e-014 2.5842e-015
rhumerus 39.4739 -2.63441 -63.4768
rradius 94.3428
rwrist 20.9595
rhand 1.26411 -13.9983
rfingers 7.12502
rthumb 26.8006 -42.1195
lclavicle -1.09238e-014 2.5842e-015
lhumerus 41.8799 -4.74525 87.1915
lradius 87.8238
lwrist -35.7326
lhand -10.8193 2.07177
lfingers 7.12502
lthumb 15.1946 31.4939
rfemur -72.842 -5.57336 21.1693
rtibia 108.005
rfoot -33.4849 -17.6031
rtoes -13.3218
lfemur -73.5238 11.2618 -18.191
ltibia 107.141
lfoot -31.5081 16.7736
ltoes -13.6431
97
root -0.801045 11.5084 11.3069 8.97046 1.67005 -1.77489
lowerback 18.8093 1.58898 -2.47398
upperback -3.50673 1.68354 1.08167
thorax -14.7434 1.04758 2.11314
lowerneck -7.29902 -3.15272 -5.76594
upperneck 3.91319 -3.97115 5.48428
head 2.82521 -1.89011 2.64214
rclavicle 3.87506e-014 -3.72721e-016
rhumerus 39.463 -2.62958 -63.4655
rradius 94.3347
rwrist 20.9601
rhand 1.25571 -13.9842
rfingers 7.12502
rthumb 26.7926 -42.1065
lclavicle 3.87506e-014 -3.72721e-016
lhumerus 41.8813 -4.75328 87.1869
lradius 87.8174
lwrist -35.7326
lhand -10.7648 2.08227
lfingers 7.12502
lthumb 15.2471 31.5004
rfemur -72.8538 -5.54543 21.1618
rtibia 108.011
rfoot -33.4742 -17.6131
rtoes -13.2803
lfemur -73.5329 11.2464 -18.1906
ltibia 107.145
lfoot -31.4894 16.7949
ltoes -13.6482
98
root -0.801202 11.5077 11.3054 8.97056 1.66303 -1.76909
lowerback 18.8135 1.58945 -2.46556
upperback -3.50527 1.68625 1.08262
thorax -14.7441 1.04812 2.10852
lowerneck -7.33026 -3.16179 -5.76626
upperneck 3.95684 -3.98283 5.4794
head 2.84656 -1.89567 2.63995
rclavicle -7.03511e-015 3.37934e-015
rhumerus 39.4551 -2.62361 -63.4531
rradius 94.3276
rwrist 20.9575
rhand 1.24929 -13.9678
rfingers 7.12502
rthumb 26.7864 -42.0911
lclavicle -7.03511e-015 3.37934e-015
lhumerus 41.886 -4.75904 87.1785
lradius 87.8123
lwrist -35.7372
lhand -10.7159 2.09061
lfingers 7.12502
lthumb 15.2941 31.5051
rfemur -72.8675 -5.51846 21.1513
rtibia 108.018
rfoot -33.4642 -17.6251
rtoes -13.2399
lfemur -73.5407 11.2305 -18.194
ltibia 107.148
lfoot -31.4696 16.8236
ltoes -13.6814
99
root -0.80126 11.5068 11.3039 8.97216 1.65207 -1.76343
lowerback 18.8189 1.59014 -2.45826
upperback -3.5051 1.68905 1.08409
thorax -14.7471 1.04886 2.10508
lowerneck -7.36522 -3.16936 -5.76801
upperneck 4.00635 -3.99226 5.47269
head 2.87046 -1.90015 2.63754
rclavicle -8.04767e-015 1.46852e-014
rhumerus 39.4497 -2.61345 -63.44
rradius 94.3213
rwrist 20.9518
rhand 1.24417 -13.954
rfingers 7.12502
rthumb 26.7815 -42.0781
lclavicle -8.04767e-015 1.46852e-014
lhumerus 41.8914 -4.75997 87.168
lradius 87.809
lwrist -35.7473
lhand -10.6739 2.08949
lfingers 7.12502
lthumb 15.3346 31.5009
rfemur -72.8843 -5.48932 21.1415
rtibia 108.027
rfoot -33.4532 -17.6381
rtoes -13.2042
lfemur -73.5507 11.2189 -18.1981
ltibia 107.152
lfoot -31.4515 16.8508
ltoes -13.6991
100
root -0.80115 11.5058 11.3024 8.97612 1.6365 -1.75248
lowerback 18.8266 1.59222 -2.45501
upperback -3.50625 1.69233 1.08327
thorax -14.7532 1.05009 2.10115
lowerneck -7.41046 -3.17625 -5.77025
upperneck 4.06429 -4.00042 5.46533
head 2.89913 -1.90389 2.63505
rclavicle -2.80286e-014 -5.11871e-015
rhumerus 39.4462 -2.60329 -63.4276
rradius 94.3161
rwrist 20.9439
rhand 1.24688 -13.9461
rfingers 7.12502
rthumb 26.7841 -42.0697
lclavicle -2.80286e-014 -5.11871e-015
lhumerus 41.8975 -4.76018 87.1551
lradius 87.8077
lwrist -35.7591
lhand -10.6435 2.08559
lfingers 7.12502
lthumb 15.3639 31.4948
rfemur -72.906 -5.46154 21.1258
rtibia 108.037
rfoot -33.4438 -17.6453
rtoes -13.1735
lfemur -73.5604 11.209 -18.2091
ltibia 107.155
lfoot -31.4344 16.8808
ltoes -13.7192
101
root -0.80099 11.5048 11.301 8.98222 1.61689 -1.74114
lowerback 18.8356 1.59549 -2.45201
upperback -3.50819 1.69699 1.08149
thorax -14.7611 1.05193 2.09583
lowerneck -7.46382 -3.18291 -5.77312
upperneck 4.12707 -4.00795 5.45783
head 2.931 -1.90724 2.63264
rclavicle -1.21383e-014 -1.25234e-014
rhumerus 39.4454 -2.59449 -63.4176
rradius 94.312
rwrist 20.9371
rhand 1.26098 -13.9475
rfingers 7.12502
rthumb 26.7976 -42.0691
lclavicle -1.21383e-014 -1.25234e-014
lhumerus 41.9039 -4.76013 87.1413
lradius 87.8082
lwrist -35.7694
lhand -10.63 2.07441
lfingers 7.12502
lthumb 15.3769 31.4826
rfemur -72.9311 -5.43283 21.1101
rtibia 108.048
rfoot -33.4326 -17.6495
rtoes -13.1514
lfemur -73.5714 11.2058 -18.2221
ltibia 107.159
lfoot -31.4217 16.9046
ltoes -13.7267
102
root -0.800855 11.5039 11.2995 8.98874 1.59399 -1.73153
lowerback 18.8488 1.59959 -2.44829
upperback -3.51163 1.70284 1.07976
thorax -14.7733 1.05431 2.0897
lowerneck -7.5231 -3.18865 -5.77777
upperneck 4.19513 -4.01404 5.45188
head 2.96586 -1.90977 2.63118
rclavicle 2.69477e-014 2.78299e-015
rhumerus 39.4456 -2.58624 -63.4124
rradius 94.3091
rwrist 20.9311
rhand 1.28842 -13.9593
rfingers 7.12502
rthumb 26.8239 -42.0769
lclavicle 2.69477e-014 2.78299e-015
lhumerus 41.9096 -4.75884 87.1264
lradius 87.8112
lwrist -35.7748
lhand -10.6313 2.06092
lfingers 7.12502
lthumb 15.3756 31.4692
rfemur -72.9579 -5.40322 21.0969
rtibia 108.057
rfoot -33.4187 -17.6525
rtoes -13.1355
lfemur -73.5835 11.2117 -18.2345
ltibia 107.163
lfoot -31.4141 16.9184
ltoes -13.7211
103
root -0.80084 11.5031 11.2981 8.99365 1.57147 -1.7243
lowerback 18.8627 1.60309 -2.44321
upperback -3.51362 1.7082 1.07797
thorax -14.7842 1.05631 2.08288
lowerneck -7.58298 -3.19374 -5.77954
upperneck 4.26111 -4.01947 5.44676
head 3.00007 -1.91189 2.62948
rclavicle -8.98258e-015 -5.34234e-015
rhumerus 39.4501 -2.58064 -63.415
rradius 94.3047
rwrist 20.9301
rhand 1.32417 -13.975
rfingers 7.12502
rthumb 26.8581 -42.0873
lclavicle -8.98258e-015 -5.34234e-015
lhumerus 41.9185 -4.75709 87.1099
lradius 87.8152
lwrist -35.7743
lhand -10.6497 2.04659
lfingers 7.12502
lthumb 15.358 31.4562
rfemur -72.9821 -5.37567 21.0871
rtibia 108.066
rfoot -33.4084 -17.6479
rtoes -13.1078
lfemur -73.5952 11.2246 -18.2447
ltibia 107.167
lfoot -31.4103 16.9233
ltoes -13.7193
104
root -0.801029 11.5021 11.2966 8.99963 1.55038 -1.71837
lowerback 18.8796 1.60648 -2.43819
upperback -3.51671 1.71339 1.07645
thorax -14.7981 1.05829 2.0764
lowerneck -7.64295 -3.19817 -5.78175
upperneck 4.32675 -4.02407 5.4432
head 3.03424 -1.91355 2.62846
rclavicle 6.19338e-015 -3.2551e-015
rhumerus 39.456 -2.57764 -63.4233
rradius 94.2992
rwrist 20.9302
rhand 1.36309 -13.9964
rfingers 7.12502
rthumb 26.8953 -42.1029
lclavicle 6.19338e-015 -3.2551e-015
lhumerus 41.9288 -4.75593 87.0939
lradius 87.8188
lwrist -35.7683
lhand -10.6864 2.0328
lfingers 7.12502
lthumb 15.3226 31.4451
rfemur -73.0107 -5.35134 21.0811
rtibia 108.075
rfoot -33.3926 -17.6457
rtoes -13.092
lfemur -73.6128 11.2444 -18.2546
ltibia 107.173
lfoot -31.4084 16.9164
ltoes -13.6995
105
root -0.801372 11.501 11.2951 9.00433 1.53003 -1.71195
lowerback 18.8902 1.60817 -2.43877
upperback -3.51739 1.71524 1.07632
thorax -14.8055 1.05925 2.07585
lowerneck -7.69527 -3.20093 -5.77601
upperneck 4.38672 -4.02702 5.43311
head 3.06445 -1.91458 2.6238
rclavicle -6.83322e-016 1.16786e-015
rhumerus 39.4663 -2.57041 -63.4398
rradius 94.2925
rwrist 20.9341
rhand 1.39371 -14.0141
rfingers 7.12502
rthumb 26.9246 -42.1162
lclavicle -6.83322e-016 1.16786e-015
lhumerus 41.9451 -4.74755 87.0764
lradius 87.8226
lwrist -35.7609
lhand -10.7229 2.02206
lfingers 7.12502
lthumb 15.2874 31.4371
rfemur -73.038 -5.33111 21.0759
rtibia 108.085
rfoot -33.3788 -17.6419
rtoes -13.0809
lfemur -73.63 11.2704 -18.2654
ltibia 107.18
lfoot -31.4094 16.9029
ltoes -13.6809
106
root -0.801884 11.4998 11.2935 9.00826 1.51194 -1.70401
lowerback 18.9032 1.60955 -2.44234
upperback -3.51817 1.71592 1.0763
thorax -14.8145 1.05995 2.07746
lowerneck -7.74532 -3.20403 -5.76733
upperneck 4.44545 -4.03059 5.42004
head 3.09367 -1.916 2.61753
rclavicle 3.47997e-014 1.36167e-014
rhumerus 39.4805 -2.56391 -63.4573
rradius 94.285
rwrist 20.9383
rhand 1.41534 -14.0335
rfingers 7.12502
rthumb 26.9453 -42.1324
lclavicle 3.47997e-014 1.36167e-014
lhumerus 41.9641 -4.73869 87.0599
lradius 87.826
lwrist -35.7504
lhand -10.7635 2.01347
lfingers 7.12502
lthumb 15.2483 31.4315
rfemur -73.0645 -5.31715 21.0712
rtibia 108.096
rfoot -33.3657 -17.6405
rtoes -13.0791
lfemur -73.6469 11.2989 -18.2768
ltibia 107.187
lfoot -31.4137 16.8805
ltoes -13.665
